<svg width="91" height="107" viewBox="0 0 91 107" fill="none" xmlns="http://www.w3.org/2000/svg">
<path d="M37.25 23.2728L52.625 30.8505L36.125 40.3768L37.25 23.2728Z" fill="#C4C4C4" fill-opacity="0.65"/>
<path d="M84.5037 20.9773L76.9259 36.3523L67.3997 19.8523L84.5037 20.9773Z" fill="#C4C4C4" fill-opacity="0.65"/>
<circle cx="46.5001" cy="6.5" r="6.5" fill="#C4C4C4" fill-opacity="0.65"/>
<circle cx="30.5001" cy="73.5" r="6.5" fill="#C4C4C4" fill-opacity="0.65"/>
<path d="M37.0001 61C41.7519 53.6996 44.8132 49.7962 53.5863 44.4182C63.4484 39.1212 62.0689 31.1788 63.0001 23" stroke="#C4C4C4" stroke-opacity="0.5" stroke-width="3"/>
<path d="M17.0001 106C21.7519 98.6996 24.8132 94.7962 33.5863 89.4182C43.4484 84.1212 42.0689 76.1788 43.0001 68" stroke="#C4C4C4" stroke-opacity="0.5" stroke-width="3"/>
<rect x="19.0001" y="6" width="14" height="14" fill="#C4C4C4" fill-opacity="0.65"/>
<rect x="12.5624" y="77.4378" width="14" height="14" transform="rotate(60 12.5624 77.4378)" fill="#C4C4C4" fill-opacity="0.65"/>
<rect x="9.89233" y="62.3302" width="7.90188" height="7.90188" transform="rotate(60 9.89233 62.3302)" fill="#C4C4C4" fill-opacity="0.65"/>
<rect x="11.7788" y="49.9731" width="4.99338" height="4.99338" transform="rotate(60 11.7788 49.9731)" fill="#C4C4C4" fill-opacity="0.65"/>
<rect x="48.0001" y="62" width="7" height="7" fill="#C4C4C4" fill-opacity="0.65"/>
<rect x="54.0001" y="49" width="7" height="7" fill="#C4C4C4" fill-opacity="0.65"/>
<rect x="73.0001" y="41" width="7" height="7" fill="#C4C4C4" fill-opacity="0.65"/>
<path d="M24.5001 32L28.3892 33.6109L30.0001 37.5L28.3892 41.3891L24.5001 43L20.611 41.3891L19.0001 37.5L20.611 33.6109L24.5001 32Z" fill="#C4C4C4" fill-opacity="0.65"/>
<path d="M25.5001 49L30.2633 51.75V57.25L25.5001 60L20.737 57.25V51.75L25.5001 49Z" fill="#C4C4C4" fill-opacity="0.65"/>
</svg>
