<svg width="126" height="82" viewBox="0 0 126 82" fill="none" xmlns="http://www.w3.org/2000/svg">
<rect x="77" y="77" width="5" height="5" fill="#C4C4C4" fill-opacity="0.5"/>
<rect x="77" y="66" width="5" height="5" fill="#C4C4C4" fill-opacity="0.5"/>
<rect x="77" y="55" width="5" height="5" fill="#C4C4C4" fill-opacity="0.5"/>
<rect x="77" y="44" width="5" height="5" fill="#C4C4C4" fill-opacity="0.5"/>
<rect x="77" y="33" width="5" height="5" fill="#C4C4C4" fill-opacity="0.5"/>
<rect x="77" y="22" width="5" height="5" fill="#C4C4C4" fill-opacity="0.5"/>
<rect x="77" y="11" width="5" height="5" fill="#C4C4C4" fill-opacity="0.5"/>
<rect x="77" width="5" height="5" fill="#C4C4C4" fill-opacity="0.5"/>
<rect x="66" y="82" width="5" height="5" transform="rotate(-90 66 82)" fill="#C4C4C4" fill-opacity="0.5"/>
<rect x="55" y="82" width="5" height="5" transform="rotate(-90 55 82)" fill="#C4C4C4" fill-opacity="0.5"/>
<rect x="44" y="82" width="5" height="5" transform="rotate(-90 44 82)" fill="#C4C4C4" fill-opacity="0.5"/>
<rect x="33" y="82" width="5" height="5" transform="rotate(-90 33 82)" fill="#C4C4C4" fill-opacity="0.5"/>
<rect x="22" y="82" width="5" height="5" transform="rotate(-90 22 82)" fill="#C4C4C4" fill-opacity="0.5"/>
<rect x="11" y="82" width="5" height="5" transform="rotate(-90 11 82)" fill="#C4C4C4" fill-opacity="0.5"/>
<rect y="82" width="5" height="5" transform="rotate(-90 0 82)" fill="#C4C4C4" fill-opacity="0.5"/>
<rect x="88" y="66" width="5" height="5" fill="#C4C4C4" fill-opacity="0.5"/>
<rect x="77" y="71" width="5" height="5" transform="rotate(-90 77 71)" fill="#C4C4C4" fill-opacity="0.5"/>
<rect x="66" y="71" width="5" height="5" transform="rotate(-90 66 71)" fill="#C4C4C4" fill-opacity="0.5"/>
<rect x="55" y="71" width="5" height="5" transform="rotate(-90 55 71)" fill="#C4C4C4" fill-opacity="0.5"/>
<rect x="44" y="71" width="5" height="5" transform="rotate(-90 44 71)" fill="#C4C4C4" fill-opacity="0.5"/>
<rect x="33" y="71" width="5" height="5" transform="rotate(-90 33 71)" fill="#C4C4C4" fill-opacity="0.5"/>
<rect x="22" y="71" width="5" height="5" transform="rotate(-90 22 71)" fill="#C4C4C4" fill-opacity="0.5"/>
<rect x="11" y="71" width="5" height="5" transform="rotate(-90 11 71)" fill="#C4C4C4" fill-opacity="0.5"/>
<rect x="99" y="55" width="5" height="5" fill="#C4C4C4" fill-opacity="0.5"/>
<rect x="88" y="60" width="5" height="5" transform="rotate(-90 88 60)" fill="#C4C4C4" fill-opacity="0.5"/>
<rect x="77" y="60" width="5" height="5" transform="rotate(-90 77 60)" fill="#C4C4C4" fill-opacity="0.5"/>
<rect x="66" y="60" width="5" height="5" transform="rotate(-90 66 60)" fill="#C4C4C4" fill-opacity="0.5"/>
<rect x="55" y="60" width="5" height="5" transform="rotate(-90 55 60)" fill="#C4C4C4" fill-opacity="0.5"/>
<rect x="44" y="60" width="5" height="5" transform="rotate(-90 44 60)" fill="#C4C4C4" fill-opacity="0.5"/>
<rect x="33" y="60" width="5" height="5" transform="rotate(-90 33 60)" fill="#C4C4C4" fill-opacity="0.5"/>
<rect x="22" y="60" width="5" height="5" transform="rotate(-90 22 60)" fill="#C4C4C4" fill-opacity="0.5"/>
<rect x="110" y="44" width="5" height="5" fill="#C4C4C4" fill-opacity="0.5"/>
<rect x="99" y="49" width="5" height="5" transform="rotate(-90 99 49)" fill="#C4C4C4" fill-opacity="0.5"/>
<rect x="88" y="49" width="5" height="5" transform="rotate(-90 88 49)" fill="#C4C4C4" fill-opacity="0.5"/>
<rect x="77" y="49" width="5" height="5" transform="rotate(-90 77 49)" fill="#C4C4C4" fill-opacity="0.5"/>
<rect x="66" y="49" width="5" height="5" transform="rotate(-90 66 49)" fill="#C4C4C4" fill-opacity="0.5"/>
<rect x="55" y="49" width="5" height="5" transform="rotate(-90 55 49)" fill="#C4C4C4" fill-opacity="0.5"/>
<rect x="44" y="49" width="5" height="5" transform="rotate(-90 44 49)" fill="#C4C4C4" fill-opacity="0.5"/>
<rect x="33" y="49" width="5" height="5" transform="rotate(-90 33 49)" fill="#C4C4C4" fill-opacity="0.5"/>
<rect x="121" y="33" width="5" height="5" fill="#C4C4C4" fill-opacity="0.5"/>
<rect x="110" y="38" width="5" height="5" transform="rotate(-90 110 38)" fill="#C4C4C4" fill-opacity="0.5"/>
<rect x="99" y="38" width="5" height="5" transform="rotate(-90 99 38)" fill="#C4C4C4" fill-opacity="0.5"/>
<rect x="88" y="38" width="5" height="5" transform="rotate(-90 88 38)" fill="#C4C4C4" fill-opacity="0.5"/>
<rect x="77" y="38" width="5" height="5" transform="rotate(-90 77 38)" fill="#C4C4C4" fill-opacity="0.5"/>
<rect x="66" y="38" width="5" height="5" transform="rotate(-90 66 38)" fill="#C4C4C4" fill-opacity="0.5"/>
<rect x="55" y="38" width="5" height="5" transform="rotate(-90 55 38)" fill="#C4C4C4" fill-opacity="0.5"/>
<rect x="44" y="38" width="5" height="5" transform="rotate(-90 44 38)" fill="#C4C4C4" fill-opacity="0.5"/>
<rect x="99" y="22" width="5" height="5" fill="#C4C4C4" fill-opacity="0.5"/>
<rect x="88" y="27" width="5" height="5" transform="rotate(-90 88 27)" fill="#C4C4C4" fill-opacity="0.5"/>
<rect x="77" y="27" width="5" height="5" transform="rotate(-90 77 27)" fill="#C4C4C4" fill-opacity="0.5"/>
<rect x="66" y="27" width="5" height="5" transform="rotate(-90 66 27)" fill="#C4C4C4" fill-opacity="0.5"/>
<rect x="55" y="27" width="5" height="5" transform="rotate(-90 55 27)" fill="#C4C4C4" fill-opacity="0.5"/>
<rect x="44" y="27" width="5" height="5" transform="rotate(-90 44 27)" fill="#C4C4C4" fill-opacity="0.5"/>
<rect x="33" y="27" width="5" height="5" transform="rotate(-90 33 27)" fill="#C4C4C4" fill-opacity="0.5"/>
<rect x="22" y="27" width="5" height="5" transform="rotate(-90 22 27)" fill="#C4C4C4" fill-opacity="0.5"/>
<rect x="88" y="11" width="5" height="5" fill="#C4C4C4" fill-opacity="0.5"/>
<rect x="77" y="16" width="5" height="5" transform="rotate(-90 77 16)" fill="#C4C4C4" fill-opacity="0.5"/>
<rect x="66" y="16" width="5" height="5" transform="rotate(-90 66 16)" fill="#C4C4C4" fill-opacity="0.5"/>
<rect x="55" y="16" width="5" height="5" transform="rotate(-90 55 16)" fill="#C4C4C4" fill-opacity="0.5"/>
<rect x="44" y="16" width="5" height="5" transform="rotate(-90 44 16)" fill="#C4C4C4" fill-opacity="0.5"/>
<rect x="33" y="16" width="5" height="5" transform="rotate(-90 33 16)" fill="#C4C4C4" fill-opacity="0.5"/>
<rect x="22" y="16" width="5" height="5" transform="rotate(-90 22 16)" fill="#C4C4C4" fill-opacity="0.5"/>
<rect x="11" y="16" width="5" height="5" transform="rotate(-90 11 16)" fill="#C4C4C4" fill-opacity="0.5"/>
<rect x="110" width="5" height="5" fill="#C4C4C4" fill-opacity="0.5"/>
<rect x="99" y="5" width="5" height="5" transform="rotate(-90 99 5)" fill="#C4C4C4" fill-opacity="0.5"/>
<rect x="88" y="5" width="5" height="5" transform="rotate(-90 88 5)" fill="#C4C4C4" fill-opacity="0.5"/>
<rect x="77" y="5" width="5" height="5" transform="rotate(-90 77 5)" fill="#C4C4C4" fill-opacity="0.5"/>
<rect x="66" y="5" width="5" height="5" transform="rotate(-90 66 5)" fill="#C4C4C4" fill-opacity="0.5"/>
<rect x="55" y="5" width="5" height="5" transform="rotate(-90 55 5)" fill="#C4C4C4" fill-opacity="0.5"/>
<rect x="44" y="5" width="5" height="5" transform="rotate(-90 44 5)" fill="#C4C4C4" fill-opacity="0.5"/>
<rect x="33" y="5" width="5" height="5" transform="rotate(-90 33 5)" fill="#C4C4C4" fill-opacity="0.5"/>
</svg>
